<?xml version="1.0" encoding="utf-8"?>
<!-- Generator: Adobe Illustrator 18.0.0, SVG Export Plug-In . SVG Version: 6.00 Build 0)  -->
<!DOCTYPE svg PUBLIC "-//W3C//DTD SVG 1.1//EN" "http://www.w3.org/Graphics/SVG/1.1/DTD/svg11.dtd">
<svg version="1.1" id="Слой_1" xmlns="http://www.w3.org/2000/svg" xmlns:xlink="http://www.w3.org/1999/xlink" x="0px" y="0px"
	 viewBox="0 0 45.9 12.1" enable-background="new 0 0 45.9 12.1" xml:space="preserve">
<g>
	<path fill="#EFE147" d="M3.1-5.8H2L1.6-3.4H0.8l0.4-2.4H0v-0.8h1.3l0.3-2.2H0.4v-0.8h1.4l0.4-2.4h0.8L2.5-9.5h1.1l0.4-2.4h0.8
		L4.5-9.5h1v0.8H4.4L4-6.6h1.1v0.8H3.9L3.5-3.4H2.7L3.1-5.8z M2.1-6.6h1.1l0.3-2.2H2.4L2.1-6.6z"/>
	<path fill="#FFFFFF" d="M8.3-6.3H7.8v2.9H6.6v-9.1h1.2v5.3h0.5l1.4-2.5h1.4L9.2-6.9l2.1,3.5H10L8.3-6.3z"/>
	<path fill="#FFFFFF" d="M13.2-8.9c0.2-0.3,0.4-0.5,0.7-0.7c0.3-0.2,0.5-0.3,0.9-0.3c0.6,0,1,0.2,1.3,0.6c0.3,0.4,0.5,1.1,0.5,1.9
		v3.9h-1.2v-3.9c0-0.6-0.1-1-0.3-1.3c-0.2-0.3-0.4-0.4-0.8-0.4c-0.2,0-0.5,0.1-0.6,0.2c-0.2,0.1-0.3,0.3-0.5,0.6v4.8H12v-9.1h1.2
		V-8.9z"/>
	<path fill="#FFFFFF" d="M18.9-9.7L19-8.9c0.2-0.3,0.4-0.6,0.7-0.7c0.3-0.2,0.6-0.3,0.9-0.3c0.3,0,0.6,0.1,0.9,0.3
		c0.2,0.2,0.4,0.5,0.6,0.9c0.2-0.4,0.4-0.7,0.7-0.9c0.3-0.2,0.6-0.3,1-0.3c0.5,0,1,0.2,1.3,0.7c0.3,0.4,0.5,1.1,0.5,2v3.8h-1.2v-3.8
		c0-0.6-0.1-1.1-0.2-1.4c-0.2-0.3-0.4-0.4-0.7-0.4c-0.3,0-0.5,0.1-0.7,0.3c-0.2,0.2-0.3,0.5-0.4,0.8c0,0,0,0,0,0.1
		c0,0.1,0,0.2,0,0.3v4H21v-3.8c0-0.6-0.1-1.1-0.2-1.4c-0.2-0.3-0.4-0.4-0.7-0.4c-0.2,0-0.5,0.1-0.6,0.2c-0.2,0.1-0.3,0.3-0.4,0.6
		v4.7h-1.2v-6.3H18.9z"/>
	<path fill="#FFFFFF" d="M30-3.4c0-0.1-0.1-0.3-0.1-0.4c0-0.1,0-0.3-0.1-0.4c-0.2,0.3-0.4,0.5-0.7,0.7c-0.3,0.2-0.6,0.3-0.9,0.3
		c-0.5,0-1-0.2-1.3-0.5c-0.3-0.3-0.5-0.8-0.5-1.4c0-0.6,0.2-1.1,0.6-1.4c0.4-0.3,1-0.5,1.7-0.5h0.9v-0.6c0-0.4-0.1-0.7-0.3-0.9
		C29.4-8.8,29.2-9,28.8-9c-0.3,0-0.5,0.1-0.7,0.3c-0.2,0.2-0.3,0.4-0.3,0.7l-1.1,0l0,0c0-0.5,0.2-0.9,0.6-1.3
		c0.4-0.4,0.9-0.6,1.6-0.6c0.6,0,1.1,0.2,1.5,0.6C30.8-8.9,31-8.4,31-7.7v2.9c0,0.2,0,0.5,0,0.7c0,0.2,0.1,0.5,0.1,0.7H30z
		 M28.6-4.2c0.3,0,0.5-0.1,0.8-0.2c0.2-0.2,0.4-0.4,0.5-0.6v-1.3h-0.9c-0.4,0-0.6,0.1-0.8,0.4c-0.2,0.2-0.3,0.5-0.3,0.9
		c0,0.3,0.1,0.5,0.2,0.7C28.1-4.3,28.3-4.2,28.6-4.2z"/>
	<path fill="#FFFFFF" d="M35.1-8.7l-0.6,0c-0.2,0-0.5,0.1-0.6,0.2c-0.2,0.1-0.3,0.4-0.4,0.6v4.5h-1.2v-6.3h1.1l0.1,1
		c0.1-0.3,0.3-0.6,0.5-0.8c0.2-0.2,0.5-0.3,0.7-0.3c0.1,0,0.2,0,0.2,0c0.1,0,0.1,0,0.2,0L35.1-8.7z"/>
	<path fill="#FFFFFF" d="M37.8-6.3h-0.5v2.9h-1.2v-9.1h1.2v5.3h0.5l1.4-2.5h1.4l-1.8,2.9l2.1,3.5h-1.4L37.8-6.3z"/>
	<path fill="#FFFFFF" d="M44.7-3.4c0-0.1-0.1-0.3-0.1-0.4c0-0.1,0-0.3-0.1-0.4c-0.2,0.3-0.4,0.5-0.7,0.7c-0.3,0.2-0.6,0.3-0.9,0.3
		c-0.5,0-1-0.2-1.3-0.5c-0.3-0.3-0.5-0.8-0.5-1.4c0-0.6,0.2-1.1,0.6-1.4c0.4-0.3,1-0.5,1.7-0.5h0.9v-0.6c0-0.4-0.1-0.7-0.3-0.9
		C44.1-8.8,43.9-9,43.5-9c-0.3,0-0.5,0.1-0.7,0.3c-0.2,0.2-0.3,0.4-0.3,0.7l-1.1,0l0,0c0-0.5,0.2-0.9,0.6-1.3
		c0.4-0.4,0.9-0.6,1.6-0.6c0.6,0,1.1,0.2,1.5,0.6c0.4,0.4,0.6,0.9,0.6,1.6v2.9c0,0.2,0,0.5,0,0.7c0,0.2,0.1,0.5,0.1,0.7H44.7z
		 M43.3-4.2c0.3,0,0.5-0.1,0.8-0.2c0.2-0.2,0.4-0.4,0.5-0.6v-1.3h-0.9c-0.4,0-0.6,0.1-0.8,0.4c-0.2,0.2-0.3,0.5-0.3,0.9
		c0,0.3,0.1,0.5,0.2,0.7C42.8-4.3,43-4.2,43.3-4.2z"/>
	<rect x="0.6" y="-1.4" fill="#FFFFFF" width="45.4" height="1"/>
</g>
</svg>
