<?xml version="1.0" encoding="utf-8"?>
<!-- Generator: Adobe Illustrator 18.0.0, SVG Export Plug-In . SVG Version: 6.00 Build 0)  -->
<!DOCTYPE svg PUBLIC "-//W3C//DTD SVG 1.1//EN" "http://www.w3.org/Graphics/SVG/1.1/DTD/svg11.dtd">
<svg version="1.1" id="Слой_1" xmlns="http://www.w3.org/2000/svg" xmlns:xlink="http://www.w3.org/1999/xlink" x="0px" y="0px"
	 viewBox="0 0 18 17" enable-background="new 0 0 18 17" xml:space="preserve">
<desc>Created with Avocode</desc>
<g>
	<path fill="#DEDEDE" d="M4.5,10L4.5,10h3.4v3.4H4.5V10z"/>
	<path fill="#DEDEDE" d="M10.1,2.1L9,1L7.9,2.1L0,10l1.1,1.1L2.2,10v6.8H9h4.5h2.2V10l1.1,1.1L18,10L10.1,2.1z M14.7,15.7l-1.2,0V10
		H9v5.7l-5.7,0l0-6.7l0.4-0.4l5.3-5l5.5,5.3L14.7,9V15.7z"/>
	<path fill="#DEDEDE" d="M12.4,11.1L12.4,11.1h-2.2v4.5h2.2V11.1z"/>
</g>
</svg>
