<?xml version="1.0" encoding="UTF-8" standalone="no"?>
<svg width="10px" height="17px" viewBox="0 0 10 17" version="1.1" xmlns="http://www.w3.org/2000/svg" xmlns:xlink="http://www.w3.org/1999/xlink" xmlns:sketch="http://www.bohemiancoding.com/sketch/ns">
    <!-- Generator: Sketch 3.3 (11970) - http://www.bohemiancoding.com/sketch -->
    <title>Shape</title>
    <desc>Created with Sketch.</desc>
    <defs></defs>
    <g id="Welcome" stroke="none" stroke-width="1" fill="none" fill-rule="evenodd" sketch:type="MSPage">
        <g id="Desktop-HD" sketch:type="MSArtboardGroup" transform="translate(-227.000000, -2027.000000)" fill="#4990E2">
            <g id="Установить-приложени-+-Shape" sketch:type="MSLayerGroup" transform="translate(227.207100, 2026.767701)">
                <path d="M7.70710023,1 L2.70710023,1 C1.70710023,1 0.707100225,2 0.707100225,3 L0.707100225,15 C0.707100225,16 1.70710023,17 2.70710023,17 L7.70710023,17 C8.70710023,17 9.70710023,16 9.70710023,15 L9.70710023,3 C9.70710023,2 8.70710023,1 7.70710023,1 L7.70710023,1 Z M5.20710023,16 C4.92710023,16 4.70710023,15.78 4.70710023,15.5 C4.70710023,15.22 4.92710023,15 5.20710023,15 C5.48710023,15 5.70710023,15.22 5.70710023,15.5 C5.70710023,15.78 5.48710023,16 5.20710023,16 L5.20710023,16 Z M8.70710023,14 L1.70710023,14 L1.70710023,2 L8.70710023,2 L8.70710023,14 L8.70710023,14 Z" id="Shape" sketch:type="MSShapeGroup"></path>
            </g>
        </g>
    </g>
</svg>