<?xml version="1.0" encoding="UTF-8" standalone="no"?>
<!-- Generator: Avocode 2.0.0 - http://avocode.com -->
<svg xmlns="http://www.w3.org/2000/svg" xmlns:xlink="http://www.w3.org/1999/xlink" width="11" height="11" viewBox="0 0 11 11">
    <desc>Created with Avocode</desc>
    <g fill="#4a90e2">
        <path d="M 6.97 4.94 L 6.97 4.94 L 6.65 4.62 C 6.75 4.72, 6.87 4.82, 7 4.91 L 6.97 4.94 Z" />
        <path d="M 7 4.91 L 7 4.91 C 6.87 4.82, 6.75 4.72, 6.65 4.62 L 5.67 3.64 C 5.31 3.28, 5.32 2.69, 5.69 2.31 L 6.71 1.3 L 7.72 0.28 C 8.09 -0.09, 8.69 -0.1, 9.05 0.26 L 10.02 1.24 C 10.13 1.35, 10.23 1.47, 10.32 1.59 C 10.69 2.18, 10.78 2.9, 10.56 3.55 C 10.62 4.26, 10.25 5.56, 8.12 7.69 C 6.22 9.59, 4.85 10.21, 3.99 10.38 C 3.24 10.8, 2.3 10.78, 1.59 10.32 C 1.47 10.23, 1.35 10.13, 1.24 10.02 L 0.26 9.05 C -0.1 8.69, -0.09 8.09, 0.28 7.72 L 1.3 6.71 L 2.31 5.69 C 2.69 5.32, 3.28 5.31, 3.64 5.67 L 4.62 6.65 C 4.72 6.75, 4.82 6.87, 4.91 7 C 5.15 7.39, 5.28 7.83, 5.27 8.29 C 5.72 8.22, 6.01 7.91, 7.05 6.87 C 7.91 6.02, 8.58 5.55, 8.52 5.25 C 7.99 5.32, 7.46 5.2, 7 4.91 Z" />
        <path d="M 10.32 1.59 L 10.32 1.59 C 10.23 1.47, 10.13 1.35, 10.02 1.24 L 10.35 1.56 L 10.32 1.59 Z" />
        <path d="M 1.56 10.35 L 1.56 10.35 L 1.24 10.02 C 1.35 10.13, 1.47 10.23, 1.59 10.32 L 1.56 10.35 Z" />
        <path d="M 4.91 7 L 4.91 7 C 4.82 6.87, 4.72 6.75, 4.62 6.65 L 4.94 6.97 L 4.91 7 Z" />
    </g>
</svg>