<?xml version="1.0" encoding="UTF-8" standalone="no"?>
<svg width="152px" height="152px" viewBox="0 0 152 152" version="1.1" xmlns="http://www.w3.org/2000/svg" xmlns:xlink="http://www.w3.org/1999/xlink" xmlns:sketch="http://www.bohemiancoding.com/sketch/ns">
    <!-- Generator: Sketch 3.3 (11970) - http://www.bohemiancoding.com/sketch -->
    <title>khmarka-icon</title>
    <desc>Created with Sketch.</desc>
    <defs></defs>
    <g id="Page-2" stroke="none" stroke-width="1" fill="none" fill-rule="evenodd" sketch:type="MSPage">
        <g id="khmarka-icon" sketch:type="MSLayerGroup">
            <rect id="Rectangle-1" fill="#05356E" sketch:type="MSShapeGroup" x="0.0583445871" y="0.0583445871" width="151.883311" height="151.883311"></rect>
            <path d="M78.5760634,102.117649 L63.6513596,102.117649 L58.6764583,134.361733 L47.8776059,134.361733 L52.8525072,102.117649 L37.5298113,102.117649 L37.5298113,91.9063509 L54.4046764,91.9063509 L58.9152536,62.8155579 L42.5047125,62.8155579 L42.5047125,52.590842 L60.4674228,52.590842 L65.5882545,19.8905364 L76.3207748,19.8905364 L71.2662751,52.590842 L86.190979,52.590842 L91.3250771,19.8905364 L102.057597,19.8905364 L97.0030977,52.590842 L110.906289,52.590842 L110.906289,62.8155579 L95.3713301,62.8155579 L90.9403514,91.9063509 L106.010986,91.9063509 L106.010986,102.117649 L89.3749158,102.117649 L84.4000145,134.361733 L73.6011621,134.361733 L78.5760634,102.117649 L78.5760634,102.117649 Z M65.2035288,91.9063509 L80.1282326,91.9063509 L84.6388098,62.8155579 L69.6345075,62.8155579 L65.2035288,91.9063509 L65.2035288,91.9063509 Z" id="Fill-1" fill="#F8E81C" sketch:type="MSShapeGroup"></path>
        </g>
    </g>
</svg>