<?xml version="1.0" encoding="utf-8"?>
<!-- Generator: Adobe Illustrator 18.0.0, SVG Export Plug-In . SVG Version: 6.00 Build 0)  -->
<!DOCTYPE svg PUBLIC "-//W3C//DTD SVG 1.1//EN" "http://www.w3.org/Graphics/SVG/1.1/DTD/svg11.dtd">
<svg version="1.1" id="Слой_1" xmlns="http://www.w3.org/2000/svg" xmlns:xlink="http://www.w3.org/1999/xlink" x="0px" y="0px"
	 viewBox="0 0 153 41" enable-background="new 0 0 153 41" xml:space="preserve">
<path fill="#F8E71C" d="M18.4,13.7v-2.6h-3.5L16.1,3h-2.7l-1.3,8.2H8.4L9.7,3H7l-1.3,8.2H1.2v2.6h4.1L4.2,21H0v2.5h3.8l-1.2,8.1h2.7
	l1.2-8.1h3.7L9,31.6h2.7l1.2-8.1h4.2V21h-3.8l1.1-7.3H18.4z M10.7,21H6.9L8,13.7h3.8L10.7,21z"/>
<path fill="#F0F0F0" d="M27.6,21.9L27.6,21.9l5.5,9.8h4.6l-7-11.7l6.1-9.6h-4.6l-4.6,8.5h-1.6V1H22v30.7h3.9v-9.8H27.6"/>
<path fill="#F0F0F0" d="M44,13.3L44,13.3V1h-4v30.7h4v-16c0.4-0.8,0.9-1.4,1.5-1.9c0.6-0.5,1.3-0.7,2.1-0.7c1.1,0,2,0.4,2.5,1.3
	c0.6,0.9,0.8,2.3,0.8,4.2v13.1h4v-13c0-2.9-0.5-5.1-1.6-6.5c-1-1.4-2.5-2.1-4.4-2.1c-1.1,0-2,0.3-2.9,0.9
	C45.2,11.4,44.5,12.2,44,13.3"/>
<path fill="#F0F0F0" d="M63.6,10.4L63.6,10.4H60v21.3h3.9V15.7c0.3-0.8,0.8-1.5,1.4-1.9c0.6-0.5,1.3-0.7,2.1-0.7
	c1,0,1.8,0.5,2.4,1.4c0.6,0.9,0.8,2.4,0.8,4.5v12.7h3.9V18.3c0-0.2,0-0.5,0-1c0-0.4,0-0.6,0-0.5c0.3-1.1,0.7-2.1,1.3-2.7
	c0.6-0.7,1.3-1,2.2-1c1,0,1.8,0.4,2.3,1.3c0.5,0.9,0.8,2.4,0.8,4.6v12.7h3.9V19c0-3-0.5-5.3-1.5-6.8S81.1,10,79.3,10
	c-1.2,0-2.3,0.4-3.2,1c-0.9,0.7-1.6,1.7-2.2,2.9c-0.4-1.3-1.1-2.3-1.9-3c-0.8-0.7-1.8-1-3-1c-1.2,0-2.2,0.3-3.1,0.9
	c-0.9,0.6-1.6,1.4-2.2,2.4L63.6,10.4"/>
<path fill="#F0F0F0" d="M103.8,29.4c-0.1-0.8-0.1-1.6-0.1-2.4v-9.9c0-2.3-0.7-4.1-1.9-5.3c-1.3-1.2-3-1.9-5-1.9
	c-2.2,0-3.9,0.6-5.3,1.9c-1.4,1.3-2,2.8-2,4.4l0.1,0.1l3.8,0c0-1,0.3-1.8,0.9-2.4c0.6-0.7,1.3-1,2.3-1c1,0,1.9,0.4,2.4,1.1
	c0.6,0.7,0.8,1.7,0.8,3v2.2h-2.9c-2.5,0-4.4,0.6-5.8,1.8c-1.4,1.2-2,2.8-2,4.8c0,1.9,0.5,3.4,1.5,4.5c1,1.1,2.4,1.7,4.2,1.7
	c1.1,0,2-0.3,2.9-0.9c0.9-0.6,1.6-1.4,2.2-2.3c0,0.5,0.1,0.9,0.2,1.4c0.1,0.5,0.2,0.9,0.4,1.4h4C104.1,30.9,103.9,30.2,103.8,29.4z
	 M99.8,26.2c-0.3,0.8-0.9,1.5-1.7,2.1c-0.8,0.6-1.6,0.8-2.5,0.8c-0.9,0-1.5-0.3-2-0.9c-0.5-0.6-0.7-1.4-0.7-2.3c0-1.1,0.3-2.1,1-2.9
	c0.7-0.8,1.6-1.2,2.8-1.2h3V26.2z"/>
<path fill="#F0F0F0" d="M117.1,13.8L117.1,13.8l0.5-3.5c-0.2-0.1-0.4-0.1-0.6-0.2c-0.3,0-0.5-0.1-0.8-0.1c-0.9,0-1.8,0.3-2.5,0.9
	c-0.7,0.6-1.3,1.5-1.7,2.7l-0.3-3.2H108v21.3h3.9V16.5c0.3-0.9,0.7-1.6,1.2-2.1c0.5-0.5,1.2-0.7,2-0.7L117.1,13.8"/>
<path fill="#F0F0F0" d="M125.6,21.9L125.6,21.9l5.5,9.8h4.6l-7-11.7l6.1-9.6h-4.6l-4.7,8.5h-1.6V1H120v30.7h3.9v-9.8H125.6"/>
<path fill="#F0F0F0" d="M151.9,29.4c-0.1-0.8-0.2-1.6-0.2-2.4v-9.9c0-2.3-0.6-4.1-1.9-5.3c-1.3-1.2-3-1.9-5-1.9
	c-2.2,0-3.9,0.6-5.3,1.9c-1.4,1.3-2,2.8-2,4.4l0.1,0.1l3.8,0c0-1,0.3-1.8,0.9-2.4c0.6-0.7,1.3-1,2.3-1c1,0,1.9,0.4,2.4,1.1
	c0.6,0.7,0.8,1.7,0.8,3v2.2h-2.9c-2.5,0-4.4,0.6-5.8,1.8c-1.4,1.2-2,2.8-2,4.8c0,1.9,0.5,3.4,1.5,4.5c1,1.1,2.4,1.7,4.2,1.7
	c1.1,0,2-0.3,2.9-0.9c0.9-0.6,1.6-1.4,2.2-2.3c0,0.5,0.1,0.9,0.2,1.4c0.1,0.5,0.2,0.9,0.4,1.4h4C152.1,30.9,151.9,30.2,151.9,29.4z
	 M147.8,26.2c-0.3,0.8-0.9,1.5-1.7,2.1c-0.8,0.6-1.6,0.8-2.5,0.8c-0.9,0-1.5-0.3-2-0.9c-0.5-0.6-0.7-1.4-0.7-2.3
	c0-1.1,0.3-2.1,1-2.9c0.7-0.8,1.6-1.2,2.8-1.2h3V26.2z"/>
<path fill="none" stroke="#F0F0F0" d="M2,40h150.6H2"/>
</svg>
